<svg xmlns="http://www.w3.org/2000/svg" width="1200" height="170" viewBox="0 0 1200 170" role="img" aria-label="Things I've shipped">
<defs>
<linearGradient id="bg" x1="0" y1="0" x2="1" y2="1"><stop offset="0" stop-color="#070b16"/><stop offset="1" stop-color="#0d1424"/></linearGradient>
<radialGradient id="glow" cx=".5" cy=".5" r=".5"><stop offset="0" stop-color="#818cf8" stop-opacity="0.39"/><stop offset="1" stop-color="#818cf8" stop-opacity="0"/></radialGradient>
<pattern id="dots" width="22" height="22" patternUnits="userSpaceOnUse"><circle cx="1.5" cy="1.5" r="1.2" fill="#64748b" fill-opacity="0.28"/></pattern>
<clipPath id="r"><rect width="1200" height="170" rx="20"/></clipPath>
</defs>
<style>.fl{animation:fl 6s ease-in-out infinite}@keyframes fl{0%,100%{transform:translateY(0)}50%{transform:translateY(-5px)}}</style>
<g clip-path="url(#r)">
<rect width="1200" height="170" fill="url(#bg)"/>
<circle cx="1080" cy="85" r="384" fill="url(#glow)"/>
<text x="56" y="66" font-family="'Segoe UI', -apple-system, BlinkMacSystemFont, Inter, Helvetica, Arial, sans-serif" font-size="14" font-weight="700" letter-spacing="1.8" fill="#22d3ee">FEATURED PROJECTS</text>
<text x="56" y="112" font-family="'Segoe UI', -apple-system, BlinkMacSystemFont, Inter, Helvetica, Arial, sans-serif" font-size="34" font-weight="800" letter-spacing="-.6" fill="#f1f5f9">Things I've shipped</text>
<text x="56" y="144" font-family="'Segoe UI', -apple-system, BlinkMacSystemFont, Inter, Helvetica, Arial, sans-serif" font-size="17" fill="#94a3b8">Five production-style builds from 2026 hackathons — tap a card to open the repo.</text>
<g class="fl" style="animation-delay:0.0s"><polygon points="1034.0,63.0 1060.0,76.0 1060.0,102.0 1034.0,89.0" fill="#b55160"/><polygon points="1060.0,76.0 1086.0,63.0 1086.0,89.0 1060.0,102.0" fill="#833b45"/><polygon points="1060.0,50.0 1086.0,63.0 1060.0,76.0 1034.0,63.0" fill="#fb7185" stroke="rgba(255,255,255,.35)" stroke-width=".8"/></g>
<g class="fl" style="animation-delay:0.6s"><polygon points="1092.0,85.0 1110.0,94.0 1110.0,112.0 1092.0,103.0" fill="#b07208"/><polygon points="1110.0,94.0 1128.0,85.0 1128.0,103.0 1110.0,112.0" fill="#7f5206"/><polygon points="1110.0,76.0 1128.0,85.0 1110.0,94.0 1092.0,85.0" fill="#f59e0b" stroke="rgba(255,255,255,.35)" stroke-width=".8"/></g>
<g class="fl" style="animation-delay:1.2s"><polygon points="996.0,90.0 1012.0,98.0 1012.0,114.0 996.0,106.0" fill="#25986e"/><polygon points="1012.0,98.0 1028.0,90.0 1028.0,106.0 1012.0,114.0" fill="#1b6e50"/><polygon points="1012.0,82.0 1028.0,90.0 1012.0,98.0 996.0,90.0" fill="#34d399" stroke="rgba(255,255,255,.35)" stroke-width=".8"/></g>
<rect x=".5" y=".5" width="1199" height="169" rx="20" fill="none" stroke="#1e293b"/>
</g></svg>